<svg width="40" height="40" viewBox="0 0 40 40" fill="none" xmlns="http://www.w3.org/2000/svg">
<g id="file-text 5">
<path id="Vector" d="M23.3333 3.33337H9.99996C9.1159 3.33337 8.26806 3.68456 7.64294 4.30968C7.01782 4.93481 6.66663 5.78265 6.66663 6.66671V33.3334C6.66663 34.2174 7.01782 35.0653 7.64294 35.6904C8.26806 36.3155 9.1159 36.6667 9.99996 36.6667H30C30.884 36.6667 31.7319 36.3155 32.357 35.6904C32.9821 35.0653 33.3333 34.2174 33.3333 33.3334V13.3334L23.3333 3.33337Z" stroke="#F9F9F9" stroke-width="2" stroke-linecap="round" stroke-linejoin="round"/>
<path id="Vector_2" d="M23.3334 3.33337V13.3334H33.3334" stroke="#F9F9F9" stroke-width="2" stroke-linecap="round" stroke-linejoin="round"/>
<path id="Vector_3" d="M26.6667 21.6666H13.3334" stroke="#F9F9F9" stroke-width="2" stroke-linecap="round" stroke-linejoin="round"/>
<path id="Vector_4" d="M26.6667 28.3334H13.3334" stroke="#F9F9F9" stroke-width="2" stroke-linecap="round" stroke-linejoin="round"/>
<path id="Vector_5" d="M16.6667 15H15H13.3334" stroke="#F9F9F9" stroke-width="2" stroke-linecap="round" stroke-linejoin="round"/>
</g>
</svg>
